<?xml version="1.0" encoding="iso-8859-1"?>
<!-- Uploaded to: SVG Repo, www.svgrepo.com, Generator: SVG Repo Mixer Tools -->
<svg version="1.1" id="Layer_1" xmlns="http://www.w3.org/2000/svg" xmlns:xlink="http://www.w3.org/1999/xlink" 
	 viewBox="0 0 512.003 512.003" xml:space="preserve">
<path style="fill:#E0DDDF;" d="M74.288,119.176v342.051c0,23.612,19.144,42.756,42.756,42.756h273.641
	c23.612,0,42.756-19.144,42.756-42.756V119.176L74.288,119.176L74.288,119.176z"/>
<path style="fill:#5CC4E0;" d="M74.288,264.548v196.679c0,23.612,19.144,42.756,42.756,42.756h273.641
	c23.612,0,42.756-19.144,42.756-42.756V264.548H74.288L74.288,264.548z"/>
<polygon style="fill:#C1BCBF;" points="112.768,264.459 112.768,119.176 74.288,119.176 74.288,264.459 74.288,264.548 
	112.768,264.548 "/>
<path style="fill:#439EE8;" d="M112.768,461.227V264.548H74.288v196.679c0,23.612,19.144,42.756,42.756,42.756h38.481
	C131.913,503.984,112.768,484.839,112.768,461.227z"/>
<path style="fill:#E0DDDF;" d="M482.611,84.971H29.394c-5.9,0-10.689,4.789-10.689,10.689v12.827c0,5.9,4.789,10.689,10.689,10.689
	h453.217c5.9,0,10.689-4.789,10.689-10.689V95.66C493.3,89.76,488.511,84.971,482.611,84.971z"/>
<rect x="219.3" y="84.968" style="fill:#F9F8F9;" width="95.486" height="34.205"/>
<path style="fill:#FAEC8E;" d="M470.458,10.65c-6.21-4.5-14.901-3.111-19.411,3.1l-53.424,71.221l-25.654,34.205L262.929,264.548
	l-147.52,196.679c-4.5,6.21-3.111,14.901,3.1,19.411c2.469,1.785,5.323,2.64,8.145,2.64c4.297,0,8.541-1.988,11.266-5.74
	l159.759-212.991l109.039-145.372l25.654-34.205l41.185-54.91C478.057,23.851,476.668,15.161,470.458,10.65z"/>
<g>
	<polygon style="fill:#FBC96C;" points="432.372,84.971 406.719,119.176 371.968,119.176 397.622,84.971 	"/>
	<path style="fill:#FBC96C;" d="M297.679,264.548L137.92,477.539c-2.726,3.752-6.969,5.74-11.266,5.74
		c-2.822,0-5.676-0.855-8.145-2.64c-6.21-4.511-7.6-13.201-3.1-19.411l147.52-196.679H297.679L297.679,264.548z"/>
</g>
<g>
	<polygon style="fill:#FAEC8E;" points="406.719,119.176 297.679,264.548 262.929,264.548 371.968,119.176 	"/>
	<path style="fill:#FAEC8E;" d="M470.458,10.65c6.21,4.511,7.6,13.201,3.1,19.411l-41.185,54.91h-34.75l53.424-71.221
		C455.557,7.539,464.247,6.15,470.458,10.65z"/>
</g>
<g>
	<circle style="fill:#439EE8;" cx="167.822" cy="299.284" r="18.706"/>
	<circle style="fill:#439EE8;" cx="365.57" cy="299.284" r="18.706"/>
	<circle style="fill:#439EE8;" cx="272.575" cy="460.689" r="18.706"/>
	<circle style="fill:#439EE8;" cx="272.575" cy="381.59" r="18.706"/>
	<circle style="fill:#439EE8;" cx="365.57" cy="381.59" r="18.706"/>
	<circle style="fill:#439EE8;" cx="365.57" cy="460.689" r="18.706"/>
</g>
<path d="M482.611,76.954h-34.204l31.564-42.083c0.026-0.034,0.052-0.069,0.078-0.106c7.084-9.774,4.895-23.502-4.887-30.608
	c-9.758-7.071-23.453-4.901-30.563,4.828l-50.981,67.969H29.394c-10.314,0-18.706,8.392-18.706,18.706v12.827
	c0,10.314,8.392,18.706,18.706,18.706h36.877V312.9c0,4.428,3.589,8.017,8.017,8.017s8.017-3.588,8.017-8.017V127.193h273.631
	L108.996,456.417c-0.026,0.034-0.052,0.069-0.078,0.106c-7.084,9.775-4.896,23.503,4.895,30.614c3.765,2.721,8.205,4.16,12.842,4.16
	c6.978,0,13.592-3.359,17.71-8.987c0,0,190.586-255.067,195.687-260.925c2.907-3.339,2.557-8.403-0.782-11.31
	c-3.34-2.91-8.404-2.558-11.311,0.781c-5.527,6.349-196.453,261.874-196.453,261.874c-0.025,0.032-0.048,0.065-0.073,0.098
	c-1.124,1.548-2.867,2.435-4.78,2.435c-0.867,0-2.168-0.195-3.434-1.11c-2.615-1.898-3.214-5.556-1.351-8.176l254.109-338.782h14.35
	l-42.313,54.403c-2.718,3.495-2.089,8.531,1.406,11.249c1.463,1.137,3.196,1.689,4.916,1.689c2.389,0,4.753-1.064,6.333-3.096
	l49.969-64.246h14.785v334.034c0,19.156-15.585,34.74-34.74,34.74H117.042c-19.155,0-34.74-15.584-34.74-34.74V352.201
	c0-4.428-3.589-8.017-8.017-8.017c-4.427,0-8.017,3.588-8.017,8.017v109.029c0,27.996,22.777,50.773,50.773,50.773h273.641
	c27.996,0,50.773-22.777,50.773-50.773V127.195h41.153c10.314,0,18.706-8.392,18.706-18.706V95.662
	C501.317,85.346,492.926,76.954,482.611,76.954z M457.46,18.56c0.025-0.032,0.049-0.066,0.074-0.099
	c1.909-2.628,5.596-3.223,8.212-1.324c2.616,1.898,3.215,5.557,1.351,8.178l-38.731,51.64H413.66L457.46,18.56z M29.394,111.159
	c-1.473,0-2.672-1.198-2.672-2.672V95.66c0-1.474,1.199-2.672,2.672-2.672h352.198l-13.63,18.171H29.394z M401.634,92.988h14.706
	l-13.63,18.171h-14.706L401.634,92.988z M485.283,108.487c0,1.474-1.199,2.672-2.672,2.672h-59.859l13.629-18.171h46.229
	c1.473,0,2.672,1.198,2.672,2.672v12.827H485.283z"/>
</svg>