<?xml version="1.0" ?>

<!DOCTYPE svg  PUBLIC '-//W3C//DTD SVG 1.1//EN'  'http://www.w3.org/Graphics/SVG/1.1/DTD/svg11.dtd'>

<!-- Uploaded to: SVG Repo, www.svgrepo.com, Generator: SVG Repo Mixer Tools -->
<svg viewBox="0 0 32 32" enable-background="new 0 0 32 32" id="Layer_1" version="1.1" xml:space="preserve" xmlns="http://www.w3.org/2000/svg" xmlns:xlink="http://www.w3.org/1999/xlink">

<g id="purse_1_">

<path d="M21.5,23h-20C1.224,23,1,22.776,1,22.5v-14C1,8.224,1.224,8,1.5,8h17C18.776,8,19,8.224,19,8.5   S18.776,9,18.5,9H2v13h19.5c0.276,0,0.5,0.224,0.5,0.5S21.776,23,21.5,23z" fill="currentColor"/>



<g>

<path d="M21.5,23c-0.276,0-0.5-0.224-0.5-0.5s0.224-0.5,0.5-0.5c1.379,0,2.5-1.121,2.5-2.5v-3    c0-0.276,0.224-0.5,0.5-0.5s0.5,0.224,0.5,0.5v3C25,21.43,23.43,23,21.5,23z" fill="currentColor"/>

<path d="M24.5,20c-0.276,0-0.5-0.224-0.5-0.5c0-1.379-1.121-2.5-2.5-2.5h-1c-0.276,0-0.5-0.224-0.5-0.5v-14    C20,2.224,20.224,2,20.5,2h1C23.43,2,25,3.57,25,5.5v14C25,19.776,24.776,20,24.5,20z M21,16h0.5c0.979,0,1.864,0.403,2.5,1.053    V5.5C24,4.121,22.879,3,21.5,3H21V16z" fill="currentColor"/>

</g>

<path d="M30.5,31h-29C1.224,31,1,30.776,1,30.5S1.224,30,1.5,30h29c0.276,0,0.5,0.224,0.5,0.5S30.776,31,30.5,31z" fill="currentColor"/>

<path d="M30.5,29h-29C1.224,29,1,28.776,1,28.5S1.224,28,1.5,28h29c0.276,0,0.5,0.224,0.5,0.5S30.776,29,30.5,29z" fill="currentColor"/>

<path d="M30.5,27h-29C1.224,27,1,26.776,1,26.5S1.224,26,1.5,26h29c0.276,0,0.5,0.224,0.5,0.5S30.776,27,30.5,27z" fill="currentColor"/>

<path d="M30.5,25h-29C1.224,25,1,24.776,1,24.5S1.224,24,1.5,24H30V11h-3.5c-0.276,0-0.5-0.224-0.5-0.5   s0.224-0.5,0.5-0.5h4c0.276,0,0.5,0.224,0.5,0.5v14C31,24.776,30.776,25,30.5,25z" fill="currentColor"/>

</g>

</svg>