<?xml version="1.0" encoding="iso-8859-1"?>
<!-- Uploaded to: SVG Repo, www.svgrepo.com, Generator: SVG Repo Mixer Tools -->
<svg version="1.1" id="Layer_1" xmlns="http://www.w3.org/2000/svg" xmlns:xlink="http://www.w3.org/1999/xlink" 
	 viewBox="0 0 512 512" xml:space="preserve">
<rect x="7.905" y="329.779" style="fill:#E0DDDF;" width="472.212" height="172.863"/>
<polygon style="fill:#C1BCBF;" points="28.986,481.564 28.986,329.782 7.905,329.782 7.905,502.645 480.117,502.645 
	480.117,481.564 "/>
<path style="fill:#E0DDDF;" d="M497.92,27.45l-11.932-11.921c-8.232-8.232-21.576-8.232-29.808,0l-41.74,41.74l-26.825-26.836
	l-29.819,29.808l29.819,29.819L267.137,210.527l-35.774,59.627l11.921,11.921l59.627-35.774l120.477-120.467l26.825,26.836
	l29.819-29.819L456.18,98.998l41.74-41.73C506.152,49.037,506.152,35.682,497.92,27.45z"/>
<polygon style="fill:#FAEC8E;" points="267.137,210.527 231.363,270.154 243.284,282.075 302.911,246.301 375.963,173.256 
	304.411,173.256 "/>
<path style="fill:#C1BCBF;" d="M496.834,26.365l-254.631,254.63l1.08,1.08l59.627-35.774l120.477-120.467l26.825,26.836
	l29.819-29.819L456.18,98.998l41.74-41.73c8.232-8.232,8.232-21.587,0-29.819L496.834,26.365z"/>
<polygon style="fill:#FBC96C;" points="353.58,195.636 375.963,173.256 349.943,173.256 242.204,280.995 243.284,282.075 
	302.911,246.301 "/>
<path style="fill:#FF675C;" d="M497.92,27.45l-11.932-11.921c-8.232-8.232-21.576-8.232-29.808,0l-41.74,41.74l-26.825-26.836
	l-29.819,29.808l92.419,92.429l29.819-29.819L456.18,98.998l41.74-41.73C506.152,49.037,506.152,35.682,497.92,27.45z"/>
<rect x="435.72" y="117.653" transform="matrix(0.7071 -0.7071 0.7071 0.7071 42.2748 360.9197)" style="fill:#DB3D5A;" width="42.172" height="23.552"/>
<rect x="411.584" y="73.936" transform="matrix(0.7071 0.7071 -0.7071 0.7071 190.9021 -270.8459)" style="fill:#FFC2BE;" width="21.614" height="42.16"/>
<path style="fill:#FF675C;" d="M497.92,27.45c8.232,8.232,8.232,21.587,0,29.819l-41.74,41.73l-41.74-41.73l41.74-41.74
	c8.232-8.232,21.576-8.232,29.808,0L497.92,27.45z"/>
<path style="fill:#DB3D5A;" d="M497.92,27.45l-11.932-11.921c-1.071-1.071-2.23-1.995-3.452-2.787l0.954,0.953
	c8.232,8.232,8.232,21.587,0,29.819l-41.405,41.394l14.095,14.09l41.74-41.73C506.152,49.037,506.152,35.682,497.92,27.45z"/>
<path style="fill:#FAEC8E;" d="M270.658,329.782c13.956,23.906,28.164,52.049,28.164,67.459c0,30.272-24.538,54.81-54.81,54.81
	s-54.81-24.538-54.81-54.81c0-15.41,14.209-43.553,28.164-67.459c13.439-23.041,26.646-42.162,26.646-42.162
	S257.218,306.74,270.658,329.782z"/>
<path style="fill:#FBC96C;" d="M265.092,430.97c-30.272,0-54.81-24.538-54.81-54.81c0-15.41,14.209-43.553,28.164-67.459
	c3.182-5.456,6.35-10.687,9.334-15.501c-2.358-3.537-3.768-5.58-3.768-5.58s-13.207,19.12-26.646,42.162
	c-13.956,23.906-28.164,52.049-28.164,67.459c0,30.272,24.538,54.81,54.81,54.81c20.554,0,38.454-11.318,47.835-28.057
	C283.931,428.431,274.81,430.97,265.092,430.97z"/>
<circle style="fill:#5CC4E0;" cx="383.145" cy="418.319" r="54.81"/>
<path style="fill:#439EE8;" d="M404.226,456.267c-30.272,0-54.81-24.538-54.81-54.81c0-12.413,4.132-23.859,11.088-33.047
	c-18.97,8.619-32.168,27.717-32.168,49.912c0,30.272,24.538,54.81,54.81,54.81c17.859,0,33.716-8.544,43.723-21.763
	C419.964,454.506,412.303,456.267,404.226,456.267z"/>
<circle style="fill:#5CC4E0;" cx="104.877" cy="418.319" r="54.81"/>
<path style="fill:#439EE8;" d="M125.958,456.267c-30.272,0-54.81-24.538-54.81-54.81c0-12.413,4.132-23.859,11.087-33.047
	c-18.97,8.619-32.168,27.717-32.168,49.912c0,30.272,24.538,54.81,54.81,54.81c17.859,0,33.716-8.544,43.723-21.763
	C141.696,454.506,134.035,456.267,125.958,456.267z"/>
<g>
	<circle style="fill:#FFFFFF;" cx="257.187" cy="386.171" r="23.716"/>
	<circle style="fill:#FFFFFF;" cx="245.592" cy="340.847" r="11.067"/>
	<circle style="fill:#FFFFFF;" cx="294.078" cy="209.091" r="5.797"/>
	<circle style="fill:#FFFFFF;" cx="272.47" cy="241.24" r="5.27"/>
	<circle style="fill:#FFFFFF;" cx="294.605" cy="229.645" r="7.378"/>
</g>
<path d="M42.162,418.321c0,34.582,28.133,62.716,62.716,62.716s62.716-28.134,62.716-62.716s-28.133-62.716-62.716-62.716
	S42.162,383.74,42.162,418.321z M104.877,371.416c25.864,0,46.905,21.042,46.905,46.905c0,25.863-21.041,46.905-46.905,46.905
	s-46.905-21.042-46.905-46.905C57.972,392.458,79.013,371.416,104.877,371.416z"/>
<path d="M445.861,418.321c0-34.582-28.134-62.716-62.716-62.716s-62.716,28.134-62.716,62.716s28.134,62.716,62.716,62.716
	S445.861,452.903,445.861,418.321z M336.24,418.321c0-25.863,21.041-46.905,46.905-46.905s46.905,21.042,46.905,46.905
	c0,25.863-21.041,46.905-46.905,46.905S336.24,444.184,336.24,418.321z"/>
<path d="M512,42.36c0-7.745-3.015-15.025-8.492-20.502L491.578,9.94c-5.475-5.475-12.753-8.49-20.494-8.49
	c-7.741,0-15.019,3.015-20.494,8.489l-36.149,36.15l-21.235-21.243c-1.482-1.483-3.492-2.317-5.59-2.317h-0.001
	c-2.096,0-4.107,0.833-5.589,2.314l-29.819,29.808c-1.483,1.483-2.317,3.493-2.317,5.591c0,2.098,0.833,4.108,2.316,5.592
	l24.228,24.228L261.547,204.937c-0.457,0.457-0.857,0.969-1.189,1.523l-35.774,59.626c-1.867,3.111-1.377,7.093,1.189,9.656
	l9.97,9.97c-3.765,5.569-13.016,19.492-22.899,36.162H98.241c-4.366,0-7.905,3.538-7.905,7.905s3.539,7.905,7.905,7.905h105.539
	c-15.112,27.389-22.485,46.942-22.485,59.555c0,34.582,28.133,62.716,62.716,62.716c34.582,0,62.716-28.134,62.716-62.716
	c0-12.613-7.373-32.165-22.485-59.554h187.97V494.74H15.811V337.687h44.797c4.366,0,7.905-3.538,7.905-7.905
	s-3.539-7.905-7.905-7.905H7.905c-4.366,0-7.905,3.538-7.905,7.905v172.863c0,4.367,3.539,7.905,7.905,7.905h472.212
	c4.366,0,7.905-3.538,7.905-7.905V329.782c0-4.367-3.539-7.905-7.905-7.905H275.178c-9.806-16.539-18.99-30.376-22.811-36.031
	l54.61-32.765c0.554-0.332,1.066-0.732,1.523-1.189l114.887-114.875l21.235,21.243c1.482,1.483,3.493,2.317,5.59,2.317
	c0,0,0,0,0.001,0c2.097,0,4.108-0.833,5.59-2.315l29.819-29.819c3.087-3.088,3.087-8.093,0-11.18L467.359,99l36.15-36.14
	C508.984,57.385,512,50.105,512,42.36z M244.011,444.145c-25.864,0-46.905-21.042-46.905-46.905c0-6.378,3.518-23.105,27.086-63.474
	c0.001-0.001,0.001-0.002,0.002-0.004c7.388-12.665,14.762-24.217,19.817-31.924c5.055,7.707,12.429,19.258,19.817,31.924
	c0.001,0.001,0.001,0.002,0.002,0.004c23.567,40.369,27.086,57.097,27.086,63.474C290.916,423.103,269.875,444.145,244.011,444.145z
	 M298.009,240.023l-53.5,32.098l-3.193-3.193l32.098-53.499l114.2-114.189l24.594,24.594L298.009,240.023z M450.215,141.49
	l-81.238-81.247l18.637-18.63l81.24,81.238L450.215,141.49z M492.33,51.679L456.18,87.82l-30.56-30.551l36.15-36.15
	c2.488-2.488,5.796-3.858,9.314-3.858c3.518,0,6.826,1.37,9.317,3.861l11.929,11.918c2.489,2.489,3.859,5.799,3.859,9.321
	C496.187,45.883,494.819,49.191,492.33,51.679z"/>
</svg>