<?xml version="1.0" encoding="iso-8859-1"?>
<!-- Uploaded to: SVG Repo, www.svgrepo.com, Generator: SVG Repo Mixer Tools -->
<svg height="800px" width="800px" version="1.1" id="Layer_1" xmlns="http://www.w3.org/2000/svg" xmlns:xlink="http://www.w3.org/1999/xlink" 
	 viewBox="0 0 512 512" xml:space="preserve">
<path style="fill:#E0DDDF;" d="M289.921,202.542V7.95h-72.083v195.62c-58.408,15.031-103.28,63.762-112.661,124.226
	c-1.208,7.696-1.823,15.583-1.823,23.607c0,84.305,68.341,152.646,152.646,152.646s152.646-68.341,152.646-152.646l-0.011-0.678
	C408.328,278.377,357.69,217.923,289.921,202.542z"/>
<path style="fill:#9FD25A;" d="M408.635,350.725c0,0.223,0.011,0.456,0.011,0.678c0,84.305-68.341,152.646-152.646,152.646
	s-152.646-68.341-152.646-152.646c0-8.025,0.615-15.911,1.823-23.607c8.682-5.025,18.265-8.332,28.918-9.254
	c47.702-4.24,90.104,23.321,134.625,38.161C314.133,373.05,369.668,379.283,408.635,350.725z"/>
<path style="fill:#C1BCBF;" d="M145.756,351.404c0-8.025,0.615-15.911,1.823-23.607c9.381-60.465,54.253-109.195,112.661-124.226
	V7.95h-42.402v195.62c-58.408,15.031-103.28,63.762-112.661,124.226c-1.208,7.696-1.823,15.583-1.823,23.607
	c0,84.305,68.341,152.646,152.646,152.646c7.196,0,14.27-0.51,21.201-1.472C202.932,492.257,145.756,428.513,145.756,351.404z"/>
<g>
	<path style="fill:#6EAD32;" d="M262.035,503.92c1.444-0.057,2.883-0.13,4.316-0.227c0.167-0.012,0.336-0.02,0.504-0.032
		c3.481-0.248,6.932-0.61,10.346-1.083c-74.269-10.321-131.445-74.064-131.445-151.174c0-8.025,0.615-15.911,1.823-23.607
		c0.499-3.22,1.12-6.399,1.819-9.551c-5.046-0.229-10.141-0.162-15.303,0.297c-10.653,0.922-20.236,4.23-28.918,9.254
		c-0.604,3.848-1.06,7.744-1.364,11.681c-0.305,3.937-0.458,7.914-0.458,11.927c0,84.305,68.341,152.646,152.646,152.646
		c1.64,0,3.271-0.034,4.897-0.086C261.277,503.951,261.655,503.935,262.035,503.92z"/>
	<path style="fill:#6EAD32;" d="M187.232,348.197c-11.005-6.436-25.545-2.61-31.968,8.375l0,0
		c-4.868,8.326-4.044,19.105,2.056,26.575c6.022,7.374,16.193,10.367,25.259,7.467c8.634-2.762,15.032-10.525,16.081-19.541
		C199.72,361.942,195.16,352.833,187.232,348.197C181.843,345.046,192.62,351.348,187.232,348.197z"/>
	<path style="fill:#6EAD32;" d="M313.114,384.553c-13.876-8.115-31.765-3.427-39.881,10.449l0,0
		c-9.445,16.155-0.868,37.594,17.147,42.745c18.987,5.428,38.253-10.022,37.11-29.699C326.929,398.39,321.47,389.44,313.114,384.553
		C299.238,376.44,326.989,392.667,313.114,384.553z"/>
	<path style="fill:#6EAD32;" d="M238.891,400.031c-11.733-6.861-27.232-2.78-34.079,8.93l0,0c-5.19,8.875-4.311,20.367,2.191,28.33
		c6.42,7.861,17.262,11.052,26.927,7.96c9.204-2.945,16.026-11.221,17.143-20.831C252.205,414.684,247.343,404.974,238.891,400.031
		C233.147,396.673,244.635,403.39,238.891,400.031z"/>
</g>
<path d="M321.433,460.909c-2.61,0-5.167-1.284-6.688-3.641c-2.381-3.689-1.32-8.611,2.369-10.992
	c2.116-1.365,4.209-2.817,6.219-4.314c3.519-2.621,8.503-1.893,11.125,1.628c2.623,3.521,1.893,8.503-1.628,11.125
	c-2.295,1.709-4.682,3.365-7.095,4.922C324.402,460.498,322.909,460.909,321.433,460.909z"/>
<path d="M355.95,427.198c-1.54,0-3.097-0.446-4.467-1.379c-3.63-2.471-4.569-7.417-2.098-11.046
	c12.763-18.745,19.509-40.657,19.509-63.369c0-26.123-8.656-50.638-25.033-70.896c-15.935-19.71-38.214-33.631-62.736-39.195
	c-4.283-0.972-6.966-5.23-5.995-9.513c0.972-4.283,5.225-6.969,9.514-5.993c27.99,6.352,53.412,22.228,71.582,44.705
	c18.69,23.12,28.568,51.091,28.568,80.892c0,25.918-7.7,50.924-22.266,72.318C360.991,425.982,358.493,427.198,355.95,427.198z"/>
<path d="M416.595,351.283l-0.01-0.592c-0.11-25.692-6.106-50.219-17.822-72.899c-2.014-3.902-6.812-5.43-10.712-3.415
	c-3.901,2.015-5.43,6.811-3.414,10.712c10.55,20.424,15.949,42.518,16.049,65.758l0.01,0.619
	c-0.032,79.759-64.93,144.634-144.696,144.634c-79.786,0-144.696-64.91-144.696-144.696c0-7.548,0.581-15.076,1.729-22.388
	c8.861-57.114,50.777-103.332,106.786-117.746c3.513-0.904,5.969-4.072,5.969-7.699v-35.024h25.971c4.391,0,7.95-3.56,7.95-7.95
	c0-4.391-3.56-7.95-7.95-7.95h-25.971v-13.781h25.971c4.391,0,7.95-3.56,7.95-7.95s-3.56-7.95-7.95-7.95h-25.971v-13.781h25.971
	c4.391,0,7.95-3.56,7.95-7.95c0-4.391-3.56-7.95-7.95-7.95h-25.971V79.503h25.971c4.391,0,7.95-3.56,7.95-7.95
	c0-4.391-3.56-7.95-7.95-7.95h-25.971V15.901h56.182v186.642c0,3.712,2.57,6.932,6.191,7.753
	c27.423,6.225,52.305,20.272,71.952,40.626c1.56,1.616,3.639,2.429,5.72,2.429c1.988,0,3.978-0.741,5.521-2.23
	c3.159-3.05,3.247-8.083,0.198-11.242c-20.315-21.045-45.682-36.018-73.681-43.554V15.901h17.491c4.392,0,7.95-3.56,7.95-7.95
	S319.754,0,315.362,0H196.638c-4.391,0-7.95,3.56-7.95,7.95s3.56,7.95,7.95,7.95h13.251v181.629
	c-59.165,17.667-103.048,67.693-112.565,129.034c-1.274,8.112-1.92,16.47-1.92,24.841C95.404,439.957,167.446,512,256,512
	c88.553,0,160.596-72.043,160.596-160.596C416.596,351.363,416.596,351.323,416.595,351.283z"/>
</svg>