<svg viewBox="0 0 32 32" fill="none" xmlns="http://www.w3.org/2000/svg">
  <path d="M22,7.25V25a5.22,5.22,0,0,1-5.22,5.22H15.22A5.21,5.21,0,0,1,10.1,26a4.43,4.43,0,0,1-.1-1V7.25a1,1,0,0,1,1-1H21A1,1,0,0,1,22,7.25Z" fill="currentColor" opacity="0.3"/>
  <path d="M22,2H10a3,3,0,0,0,0,6H22a3,3,0,0,0,0-6Z" fill="currentColor"/>
  <path d="M13.57,25a1.08,1.08,0,0,1-1.14,1H10.1a4.43,4.43,0,0,1-.1-1V24h2.43A1.08,1.08,0,0,1,13.57,25Z" fill="currentColor"/>
  <path d="M13.57,22a1.08,1.08,0,0,1-1.14,1H10V21h2.43A1.08,1.08,0,0,1,13.57,22Z" fill="currentColor"/>
  <path d="M17,19a1.08,1.08,0,0,1-1.14,1H10V18h5.86A1.08,1.08,0,0,1,17,19Z" fill="currentColor"/>
  <path d="M13.57,16.25a1.08,1.08,0,0,1-1.14,1H10v-2h2.43A1.08,1.08,0,0,1,13.57,16.25Z" fill="currentColor"/>
  <path d="M13.57,13.25a1.08,1.08,0,0,1-1.14,1H10v-2h2.43A1.08,1.08,0,0,1,13.57,13.25Z" fill="currentColor"/>
  <path d="M17,10.25a1.08,1.08,0,0,1-1.14,1H10v-2h5.86A1.08,1.08,0,0,1,17,10.25Z" fill="currentColor"/>
</svg>
