<svg viewBox="0 0 32 32" fill="none" xmlns="http://www.w3.org/2000/svg">
  <path d="M26.72,6.31A1,1,0,0,0,26,6H6a1,1,0,0,0-.72.31A1,1,0,0,0,5,7.05l1,21A2,2,0,0,0,8,30H24a2,2,0,0,0,2-1.91l1-21A1,1,0,0,0,26.72,6.31Z" fill="currentColor" opacity="0.3"/>
  <path d="M7,16c1,.57,2.82,2.69,4.3,2,1.56-.2,2.78-3.18,4.7-2.17,1.92-1,3.14,2,4.7,2.17,1.48.65,3.3-1.47,4.3-2" stroke="currentColor" stroke-width="2" stroke-linecap="round" stroke-linejoin="round" fill="none"/>
  <path d="M27,2H5A3,3,0,0,0,5,8H27a3,3,0,0,0,0-6Z" fill="currentColor"/>
</svg>
