<?xml version="1.0" encoding="iso-8859-1"?>
<!-- Uploaded to: SVG Repo, www.svgrepo.com, Generator: SVG Repo Mixer Tools -->
<svg version="1.1" id="Layer_1" xmlns="http://www.w3.org/2000/svg" xmlns:xlink="http://www.w3.org/1999/xlink" 
	 viewBox="0 0 512 512" xml:space="preserve">
<path style="fill:#82C8DB;" d="M421.067,463.618L315.914,169.68V8.987h-44.664L249.463,169.68l98.043,334.967h44.664
	C416.136,504.647,429.139,486.184,421.067,463.618z"/>
<path style="fill:#A3DDE9;" d="M376.403,463.618l-0.911-2.547l-53.004-80.274l0.394-66.79L271.251,169.68V8.987h-75.166V169.68
	L90.932,463.618c-8.072,22.566,4.932,41.029,28.897,41.029h227.677C371.472,504.647,384.476,486.184,376.403,463.618z"/>
<polygon style="fill:#419EBE;" points="307.27,314.009 191.296,314.009 138.685,461.072 338.837,461.072 338.837,406.604 "/>
<polygon style="fill:#146A8A;" points="322.882,314.009 295.287,314.009 326.854,461.072 375.493,461.072 "/>
<path d="M360.768,399.357c-1.52-4.249-6.193-6.463-10.445-4.94c-4.249,1.52-6.461,6.196-4.94,10.445l16.893,47.224l-212.554-0.001
	l46.764-130.722h119.026l18.862,52.728c1.519,4.247,6.191,6.461,10.445,4.94c4.249-1.52,6.461-6.196,4.94-10.445l-20.8-58.146
	c-1.162-3.25-4.242-5.418-7.693-5.418H190.732c-3.451,0-6.531,2.169-7.693,5.418l-52.61,147.062
	c-0.895,2.502-0.517,5.285,1.013,7.457c1.531,2.173,4.022,3.465,6.68,3.465l235.754,0.002c2.657,0,5.149-1.292,6.68-3.465
	c1.531-2.173,1.908-4.954,1.013-7.457L360.768,399.357z"/>
<path d="M428.759,460.049L324.085,167.446V16.34h13.617c4.512,0,8.17-3.658,8.17-8.17S342.214,0,337.702,0H174.297
	c-4.512,0-8.17,3.658-8.17,8.17s3.658,8.17,8.17,8.17h13.617v151.105L83.24,460.049c-4.755,13.292-3.498,26.572,3.448,36.433
	C93.632,506.344,105.712,512,119.829,512h272.34c14.117,0,26.197-5.656,33.143-15.518
	C432.258,486.621,433.515,473.342,428.759,460.049z M411.954,487.073c-3.9,5.537-10.926,8.586-19.784,8.586h-272.34
	c-8.858,0-15.884-3.049-19.784-8.586c-3.9-5.537-4.404-13.179-1.422-21.519l105.153-293.938c0.316-0.883,0.477-1.814,0.477-2.752
	V16.34h103.489v152.523c0,0.938,0.161,1.868,0.477,2.752l105.153,293.938C416.358,473.894,415.854,481.536,411.954,487.073z"/>
</svg>