<?xml version="1.0" encoding="iso-8859-1"?>
<!-- Uploaded to: SVG Repo, www.svgrepo.com, Generator: SVG Repo Mixer Tools -->
<svg version="1.1" id="Layer_1" xmlns="http://www.w3.org/2000/svg" xmlns:xlink="http://www.w3.org/1999/xlink" 
	 viewBox="0 0 512 512" xml:space="preserve">
<path style="fill:#E0DDDF;" d="M283.335,491.499c-104.347,0-189.24-84.893-189.24-189.24h42.053
	c0,81.159,66.028,147.187,147.187,147.187s147.187-66.028,147.187-147.187s-66.028-147.187-147.187-147.187v-42.053
	c104.347,0,189.24,84.893,189.24,189.24S387.682,491.499,283.335,491.499z"/>
<path style="fill:#5CC4E0;" d="M383.485,462.755c4.826,5.025,9.283,10.419,13.31,16.127l0.084,25.232H169.791l0.231-25.453
	c3.995-5.625,8.39-10.944,13.152-15.917c10.671-11.113,23.182-20.459,37.028-27.545c18.945-9.693,40.392-15.171,63.133-15.171
	c22.74,0,44.188,5.477,63.133,15.171C360.313,442.286,372.814,451.632,383.485,462.755z"/>
<path style="fill:#439EE8;" d="M216.817,462.745c10.671-11.113,23.182-20.459,37.028-27.545
	c14.201-7.266,29.807-12.163,46.311-14.159c-5.513-0.667-11.126-1.011-16.821-1.011c-22.74,0-44.188,5.477-63.133,15.171
	c-13.846,7.086-26.357,16.432-37.028,27.545c-4.763,4.973-9.157,10.293-13.152,15.917l-0.231,25.453h33.643l0.231-25.453
	C207.66,473.038,212.054,467.718,216.817,462.745z"/>
<rect x="39.425" y="268.616" style="fill:#FF675C;" width="218.678" height="33.643"/>
<rect x="109.16" y="268.616" style="fill:#FFC2BE;" width="45.554" height="33.643"/>
<g>
	<polygon style="fill:#5CC4E0;" points="309.408,7.885 291.567,25.726 306.443,40.592 220.255,126.78 273.778,180.304 
		298.264,155.829 334.135,119.947 359.967,94.115 374.832,108.992 392.674,91.151 	"/>
	
		<rect x="329.51" y="-0.445" transform="matrix(-0.7071 0.7071 -0.7071 -0.7071 625.3635 -142.1646)" style="fill:#5CC4E0;" width="25.231" height="117.759"/>
</g>
<g>
	
		<rect x="318.271" y="34.614" transform="matrix(0.7071 0.7071 -0.7071 0.7071 130.3146 -220.1551)" style="fill:#439EE8;" width="25.274" height="25.223"/>
	<polygon style="fill:#439EE8;" points="369.965,68.442 352.129,86.278 374.832,108.992 392.674,91.151 	"/>
</g>
<rect x="229.169" y="72.599" transform="matrix(-0.7071 0.7071 -0.7071 -0.7071 573.3529 -16.5988)" style="fill:#FF675C;" width="121.891" height="75.693"/>
<polygon style="fill:#DB3D5A;" points="306.443,40.592 293.107,53.928 333.886,94.707 261.034,167.56 273.778,180.304 
	359.967,94.115 "/>
<path d="M348.885,116.348l11.08-11.08l9.291,9.297c1.478,1.479,3.483,2.311,5.576,2.311c0,0,0,0,0.001,0
	c2.091,0,4.096-0.831,5.576-2.31l17.841-17.841c3.079-3.079,3.079-8.072,0-11.15L314.985,2.309C313.504,0.831,311.499,0,309.408,0
	s-4.096,0.831-5.576,2.31L285.99,20.151c-1.478,1.479-2.309,3.485-2.309,5.577s0.832,4.097,2.311,5.576l9.297,9.29l-80.611,80.611
	c-1.478,1.478-2.309,3.484-2.309,5.575c0,2.091,0.831,4.097,2.309,5.575l53.523,53.523c1.54,1.54,3.558,2.31,5.576,2.31
	c2.018,0,4.035-0.77,5.574-2.308l21.789-21.779c29.863,3.839,58.043,17.517,79.703,38.771c1.535,1.507,3.528,2.257,5.523,2.257
	c2.042,0,4.084-0.788,5.629-2.362c3.049-3.109,3.002-8.101-0.106-11.15c-21.265-20.868-48.188-35.176-77.07-41.195l21.583-21.589
	c75.763,23.224,128.288,93.882,128.288,173.426c0,60.747-29.851,116.514-80.164,150.412c-6.752-6.444-14.079-12.186-21.891-17.216
	c20.537-12.259,38.037-29.105,51.106-49.363c16.137-25.013,24.665-54.003,24.665-83.833c0-29.514-8.362-58.245-24.184-83.085
	c-2.341-3.673-7.213-4.753-10.887-2.414c-3.672,2.339-4.753,7.213-2.415,10.887c14.206,22.303,21.715,48.104,21.715,74.612
	c0,52.134-29.787,100.438-76.189,124.14c-19.776-9.458-40.986-14.254-63.113-14.254s-43.337,4.796-63.113,14.254
	c-44.052-22.501-73.109-67.178-75.94-116.255h113.821c4.356,0,7.885-3.53,7.885-7.885v-33.643c0-4.355-3.529-7.885-7.885-7.885
	H39.425c-4.356,0-7.885,3.53-7.885,7.885v33.643c0,4.355,3.529,7.885,7.885,7.885h46.951c0.873,22.178,5.418,43.809,13.566,64.408
	c1.6,4.05,6.184,6.031,10.232,4.431c4.05-1.602,6.034-6.183,4.431-10.233c-7.414-18.744-11.595-38.424-12.457-58.607h26.314
	c1.368,27.036,9.755,53.145,24.466,75.949c13.068,20.258,30.569,37.104,51.104,49.362c-7.811,5.026-15.138,10.765-21.89,17.2
	c-21.799-14.727-40.401-34.221-54.031-56.71c-2.257-3.725-7.106-4.913-10.831-2.657c-3.724,2.257-4.913,7.106-2.656,10.83
	c14.368,23.706,33.825,44.34,56.601,60.161c-2.675,3.171-5.237,6.444-7.632,9.817c-0.934,1.314-1.441,2.883-1.457,4.494
	l-0.231,25.453c-0.019,2.103,0.804,4.128,2.285,5.621c1.48,1.494,3.498,2.335,5.602,2.335h227.088c2.095,0,4.105-0.834,5.586-2.319
	c1.48-1.486,2.307-3.497,2.3-5.592l-0.084-25.232c-0.005-1.619-0.508-3.196-1.441-4.519c-2.434-3.45-5.054-6.803-7.8-10.055
	c24.387-16.934,44.851-39.269,59.498-65.098c16.696-29.443,25.522-62.959,25.522-96.927
	C480.46,218.579,426.983,143.948,348.885,116.348z M309.408,19.035l72.115,72.115l-6.688,6.688L302.72,25.724L309.408,19.035z
	 M273.779,169.155l-42.374-42.374l75.038-75.037l42.371,42.372L273.779,169.155z M47.31,294.374v-17.873h202.908v17.873H47.31z
	 M177.747,496.23l0.136-14.982c3.376-4.572,7.059-8.949,10.972-13.035c0.002-0.002,0.005-0.004,0.007-0.007
	c10.159-10.581,21.913-19.324,34.933-25.987c0.002-0.001,0.004-0.002,0.006-0.003c18.55-9.489,38.58-14.302,59.534-14.302
	s40.984,4.812,59.534,14.302c0.002,0.001,0.004,0.002,0.006,0.003c13.01,6.658,24.757,15.402,34.915,25.99
	c0.002,0.002,0.004,0.005,0.006,0.007c3.993,4.158,7.726,8.596,11.121,13.22l0.05,14.794H177.747z"/>
<path d="M50.99,251.269h196.6c4.356,0,7.885-3.53,7.885-7.885s-3.529-7.885-7.885-7.885H50.99c-4.356,0-7.885,3.53-7.885,7.885
	S46.634,251.269,50.99,251.269z"/>
</svg>