<svg fill="#000000" height="800px" width="800px" version="1.1" id="Layer_1" xmlns="http://www.w3.org/2000/svg" xmlns:xlink="http://www.w3.org/1999/xlink" 
	 viewBox="0 0 512 512" xml:space="preserve">
<g>
	<g>
		<path d="M408.969,21.027H242.333V7.885c0-4.356-3.53-7.885-7.885-7.885s-7.885,3.529-7.885,7.885v122.507
			c-0.174-0.012-0.348-0.026-0.526-0.026H205.01c-4.355,0-7.885,3.529-7.885,7.885v118.275H50.464c-4.355,0-7.885,3.529-7.885,7.885
			c0,4.356,3.53,7.885,7.885,7.885h12.258l33.476,37.194v69.522c0,4.356,3.53,7.885,7.885,7.885s7.885-3.529,7.885-7.885v-27.866
			h88.88l23.081,20.197l-38.772,16.155c-2.79,1.162-4.67,3.817-4.84,6.836c-0.169,3.017,1.401,5.867,4.043,7.336l26.943,14.968
			l-19.287,13.777c-1.886,1.347-3.084,3.456-3.275,5.766c-0.191,2.309,0.643,4.586,2.282,6.226l16.455,16.456l-4.825,7.237
			c-2.416,3.623-1.437,8.519,2.187,10.934c1.345,0.897,2.864,1.326,4.366,1.326c2.547,0,5.049-1.233,6.568-3.513l8.411-12.616
			c2.085-3.128,1.673-7.292-0.985-9.95l-14.445-14.444l21.864-15.617c2.2-1.572,3.442-4.161,3.289-6.861
			c-0.152-2.7-1.679-5.134-4.043-6.448l-23.613-13.119l35.433-14.764c2.514-1.047,4.309-3.318,4.749-6.006s-0.539-5.412-2.589-7.206
			l-19.047-16.67h102.695v121.429c0,13.043-10.611,23.655-23.655,23.655H135.622c-13.044,0-23.655-10.612-23.655-23.655v-62.034
			c0-4.356-3.53-7.885-7.885-7.885s-7.885,3.529-7.885,7.885v62.034c0,21.74,17.686,39.425,39.425,39.425h168.214
			c21.74,0,39.425-17.686,39.425-39.425V272.296h6.834c4.355,0,7.885-3.529,7.885-7.885c0-4.356-3.53-7.885-7.885-7.885H212.895
			v-110.39h13.142c0.178,0,0.351-0.015,0.526-0.026v13.168c0,4.356,3.53,7.885,7.885,7.885s7.885-3.529,7.885-7.885v-13.143
			c168.241-0.02,168.864-0.048,169.049-0.058c32.545-1.281,58.039-27.808,58.039-60.393v-4.205
			C469.421,48.145,442.303,21.027,408.969,21.027z M197.125,335.376h-85.158v-28.912c0-1.948-0.721-3.827-2.024-5.276L83.94,272.296
			h113.186V335.376z M327.491,272.296v63.08H212.895v-63.08H327.491z M242.333,36.797h85.988l-85.988,83.234V36.797z
			 M453.651,85.684c0,21.994-15.714,40.244-36.797,43.969v-25.045c0-4.356-3.53-7.885-7.885-7.885c-4.355,0-7.885,3.529-7.885,7.885
			v25.719c-5.515,0.003-13.085,0.007-22.078,0.01v-25.729c0-4.356-3.53-7.885-7.885-7.885s-7.885,3.529-7.885,7.885v25.734
			c-6.94,0.002-14.364,0.004-22.078,0.005v-25.739c0-4.356-3.53-7.885-7.885-7.885c-4.355,0-7.885,3.529-7.885,7.885v25.743
			c-7.274,0.001-14.681,0.003-22.078,0.004v-25.747c0-4.356-3.53-7.885-7.885-7.885s-7.885,3.529-7.885,7.885v25.75
			c-11.543,0.002-22.798,0.003-33.207,0.005l96.661-93.567h57.976c24.638,0,44.682,20.044,44.682,44.682V85.684z"/>
	</g>
</g>
<g>
	<g>
		<path d="M356.314,46.259h-8.322c-4.355,0-7.885,3.529-7.885,7.885c0,4.356,3.53,7.885,7.885,7.885h8.322
			c4.355,0,7.885-3.529,7.885-7.885C364.199,49.788,360.669,46.259,356.314,46.259z"/>
	</g>
</g>
<g>
	<g>
		<path d="M406.866,46.259h-25.472c-4.355,0-7.885,3.529-7.885,7.885c0,4.356,3.53,7.885,7.885,7.885h25.472
			c4.355,0,7.885-3.529,7.885-7.885C414.751,49.788,411.221,46.259,406.866,46.259z"/>
	</g>
</g>
<g>
	<g>
		<path d="M293.322,382.686c-4.355,0-7.885,3.529-7.885,7.885v50.464c0,4.356,3.53,7.885,7.885,7.885s7.885-3.529,7.885-7.885
			v-50.464C301.207,386.215,297.677,382.686,293.322,382.686z"/>
	</g>
</g>
<g>
	<g>
		<path d="M293.322,454.177c-4.355,0-7.885,3.529-7.885,7.885v4.728c0,4.356,3.53,7.885,7.885,7.885s7.885-3.529,7.885-7.885v-4.728
			C301.207,457.706,297.677,454.177,293.322,454.177z"/>
	</g>
</g>
</svg>