<svg viewBox="0 0 32 32" fill="none" xmlns="http://www.w3.org/2000/svg">
  <path d="M26.72,6.31A1,1,0,0,0,26,6H6a1,1,0,0,0-.72.31A1,1,0,0,0,5,7.05l1,22A1,1,0,0,0,7,30H25a1,1,0,0,0,1-.95l1-22A1,1,0,0,0,26.72,6.31Z" fill="currentColor" opacity="0.3"/>
  <rect x="2" y="2" width="28" height="6" rx="2" ry="2" fill="currentColor"/>
  <path d="M21,21a1.1,1.1,0,0,0,0-.18v-.72a2.15,2.15,0,0,0-1-1.82A3,3,0,0,0,20,18V17a2,2,0,0,0-2-2H14a2,2,0,0,0-2,2v1a3,3,0,0,0,0,.31,2.15,2.15,0,0,0-1,1.82v.72A1.1,1.1,0,0,0,11,21,2.4,2.4,0,0,0,9,23.4v.2A2.41,2.41,0,0,0,11.4,26h9.2A2.41,2.41,0,0,0,23,23.6v-.2A2.4,2.4,0,0,0,21,21Z" fill="currentColor"/>
</svg>
