<?xml version="1.0" encoding="iso-8859-1"?>
<!-- Uploaded to: SVG Repo, www.svgrepo.com, Generator: SVG Repo Mixer Tools -->
<svg height="800px" width="800px" version="1.1" id="Layer_1" xmlns="http://www.w3.org/2000/svg" xmlns:xlink="http://www.w3.org/1999/xlink" 
	 viewBox="0 0 512.001 512.001" xml:space="preserve">
<polygon style="fill:#FF675C;" points="309.044,429.474 429.473,309.045 212.703,92.286 92.285,212.704 "/>
<polygon style="fill:#DB3D5A;" points="113.35,191.639 128.545,176.444 345.309,393.209 309.044,429.474 92.285,212.704 "/>
<polygon style="fill:#FAEC8E;" points="35.083,113.351 113.35,191.628 113.35,191.639 191.628,113.361 191.628,113.351 
	113.35,35.084 "/>
<polygon style="fill:#FBC96C;" points="60.911,87.522 139.189,165.8 113.35,191.639 113.35,191.628 35.083,113.351 "/>
<polygon style="fill:#FAEC8E;" points="309.044,429.474 444.524,444.524 429.473,309.045 "/>
<polygon style="fill:#FBC96C;" points="444.524,444.524 387.772,438.22 438.219,387.773 "/>
<polygon style="fill:#FAEC8E;" points="429.473,309.045 438.219,387.773 387.772,438.22 309.044,429.474 "/>
<g>
	<circle style="fill:#DB3D5A;" cx="226.19" cy="170.84" r="31.933"/>
	<circle style="fill:#DB3D5A;" cx="300.699" cy="255.994" r="31.933"/>
	<circle style="fill:#DB3D5A;" cx="235.237" cy="237.367" r="17.563"/>
</g>
<path d="M2.338,146.095c3.076,3.075,8.212,3.077,11.29,0l21.454-21.454l66.983,66.992l-15.426,15.426
	c-3.118,3.118-3.118,8.172,0,11.289L303.4,435.117c1.282,1.282,2.962,2.089,4.764,2.29l132.696,14.742l57.5,57.5
	c7.284,7.282,18.568-4.013,11.29-11.289l-57.5-57.5l-14.742-132.696c-0.2-1.802-1.007-3.482-2.29-4.763L218.348,86.641
	c-3.118-3.119-8.173-3.118-11.289,0l-93.702,93.702l-66.983-66.993l66.978-66.978l42.264,42.259
	c1.558,1.558,3.602,2.337,5.645,2.337c2.044,0,4.086-0.779,5.646-2.339c3.118-3.118,3.118-8.173-0.001-11.289l-42.263-42.258
	l21.456-21.456c3.118-3.118,3.118-8.173,0-11.289c-3.119-3.118-8.173-3.118-11.29,0L2.338,134.806
	C-0.779,137.923-0.779,142.978,2.338,146.095C3.897,147.655-0.779,142.978,2.338,146.095C5.414,149.172-0.779,142.978,2.338,146.095
	z M435.488,435.489l-109.053-12.115l96.937-96.937L435.488,435.489z M103.575,212.704l109.128-109.129l205.479,205.47
	L309.044,418.183l-27.847-27.85l33.493-33.493c3.118-3.118,3.118-8.173,0-11.289c-3.119-3.119-8.173-3.118-11.29,0l-33.492,33.493
	l-33.867-33.869l33.497-33.497c3.118-3.118,3.118-8.173,0-11.289c-3.12-3.118-8.174-3.118-11.29,0l-33.496,33.497l-33.867-33.869
	l33.491-33.491c3.118-3.118,3.118-8.173,0-11.289c-3.119-3.118-8.173-3.118-11.29,0l-33.491,33.49l-33.872-33.874l33.489-33.49
	c3.118-3.118,3.118-8.173,0-11.289c-3.12-3.118-8.174-3.118-11.29,0l-33.489,33.489L103.575,212.704z"/>
</svg>