<?xml version="1.0" encoding="iso-8859-1"?>
<!-- Uploaded to: SVG Repo, www.svgrepo.com, Generator: SVG Repo Mixer Tools -->
<svg height="800px" width="800px" version="1.1" id="Layer_1" xmlns="http://www.w3.org/2000/svg" xmlns:xlink="http://www.w3.org/1999/xlink" 
	 viewBox="0 0 512 512" xml:space="preserve">
<path style="fill:#439EE8;" d="M353.524,186.037V504.05H158.476V186.037c0-35.13,28.473-63.602,63.602-63.602H256h33.921
	C325.051,122.435,353.524,150.908,353.524,186.037z"/>
<path style="fill:#5CC4E0;" d="M179.677,482.849V186.037c0-23.38,19.021-42.402,42.402-42.402h67.843
	c23.38,0,42.402,19.021,42.402,42.402v296.812H179.677z"/>
<path style="fill:#FFFFFF;" d="M272.961,380.035c17.374,6.795,29.681,23.681,29.681,43.451c0,25.812-20.978,46.737-46.811,46.642
	c-24.943-0.085-45.667-20.204-46.451-45.137c-0.647-20.416,11.851-37.992,29.66-44.956V171.197c0-5.851,4.749-10.6,10.6-10.6h12.72
	c5.851,0,10.6,4.749,10.6,10.6V380.035z"/>
<path style="fill:#FF675C;" d="M272.961,380.035V240.74h-33.921v139.296c-17.809,6.964-30.307,24.54-29.66,44.956
	c0.784,24.932,21.508,45.052,46.451,45.137c25.833,0.095,46.811-20.83,46.811-46.642
	C302.642,403.717,290.335,386.83,272.961,380.035z"/>
<path style="fill:#FFFFFF;" d="M277.201,423.487c0-11.713-9.487-21.201-21.201-21.201c-11.713,0-21.201,9.487-21.201,21.201
	s9.487,21.201,21.201,21.201C267.713,444.687,277.201,435.2,277.201,423.487z"/>
<path d="M289.921,114.484H263.95V75.793c0-4.391-3.56-7.95-7.95-7.95c-14.32,0-25.971-11.651-25.971-25.971
	S241.68,15.901,256,15.901s25.971,11.651,25.971,25.971c0,4.391,3.56,7.95,7.95,7.95s7.95-3.56,7.95-7.95
	C297.872,18.784,279.088,0,256,0s-41.872,18.784-41.872,41.872c0,20.371,14.621,37.391,33.921,41.115v31.498h-25.971
	c-39.455,0-71.553,32.098-71.553,71.553V504.05c0,4.391,3.56,7.95,7.95,7.95H264.48c4.391,0,7.95-3.56,7.95-7.95
	c0-4.391-3.56-7.95-7.95-7.95h-98.054V186.037c0-30.687,24.965-55.652,55.652-55.652h67.843c30.687,0,55.652,24.965,55.652,55.652
	v310.062h-38.692c-4.391,0-7.95,3.56-7.95,7.95c0,4.391,3.56,7.95,7.95,7.95h46.642c4.391,0,7.95-3.56,7.95-7.95V186.037
	C361.474,146.583,329.376,114.484,289.921,114.484z"/>
<path d="M201.433,425.242c0.913,29.036,25.303,52.738,54.367,52.837c0.07,0,0.138,0,0.208,0c14.54,0,28.213-5.649,38.52-15.918
	c10.359-10.321,16.064-24.056,16.064-38.675c0-20.778-11.482-39.299-29.681-48.585V171.197c0-10.228-8.322-18.551-18.551-18.551
	H249.64c-10.228,0-18.551,8.322-18.551,18.551v23.851h-25.971c-4.391,0-7.95,3.56-7.95,7.95c0,4.391,3.56,7.95,7.95,7.95h25.971
	v18.021h-25.971c-4.391,0-7.95,3.56-7.95,7.95c0,4.391,3.56,7.95,7.95,7.95h25.971v18.021h-25.971c-4.391,0-7.95,3.56-7.95,7.95
	s3.56,7.95,7.95,7.95h25.971v18.021h-25.971c-4.391,0-7.95,3.56-7.95,7.95s3.56,7.95,7.95,7.95h25.971v18.021h-25.971
	c-4.391,0-7.95,3.56-7.95,7.95s3.56,7.95,7.95,7.95h25.971v28.277C212.495,384.463,200.762,404.042,201.433,425.242z
	 M246.99,171.197c0-1.461,1.189-2.65,2.65-2.65h12.721c1.461,0,2.65,1.189,2.65,2.65v208.839c0,3.273,2.007,6.212,5.054,7.404
	c14.96,5.85,24.627,20,24.627,36.047c0,10.361-4.043,20.095-11.386,27.411c-7.305,7.278-16.995,11.281-27.301,11.281
	c-0.049,0-0.099,0-0.147,0c-20.6-0.07-37.885-16.864-38.531-37.438c-0.517-16.351,9.372-31.341,24.61-37.301
	c3.048-1.193,5.054-4.131,5.054-7.404V171.197z"/>
<path d="M226.849,423.487c0,16.074,13.077,29.151,29.151,29.151s29.151-13.077,29.151-29.151c0-16.074-13.077-29.151-29.151-29.151
	S226.849,407.412,226.849,423.487z M256,410.236c7.307,0,13.251,5.944,13.251,13.251c0,7.307-5.944,13.251-13.251,13.251
	c-7.307,0-13.251-5.944-13.251-13.251C242.749,416.18,248.693,410.236,256,410.236z"/>
</svg>