<?xml version="1.0" encoding="iso-8859-1"?>
<!-- Uploaded to: SVG Repo, www.svgrepo.com, Generator: SVG Repo Mixer Tools -->
<svg version="1.1" id="Layer_1" xmlns="http://www.w3.org/2000/svg" xmlns:xlink="http://www.w3.org/1999/xlink" 
	 viewBox="0 0 511.999 511.999" xml:space="preserve">
<polygon style="fill:#E0DDDF;" points="434.086,75.793 434.086,398.045 383.204,398.045 383.204,75.793 400.164,7.95 417.125,7.95 
	"/>
<polygon style="fill:#C1BCBF;" points="400.164,7.95 383.204,75.793 383.204,398.045 400.812,398.045 400.812,7.95 "/>
<path style="fill:#5CC4E0;" d="M438.326,402.285v80.563c0,11.713-9.487,21.201-21.201,21.201h-16.961
	c-11.713,0-21.201-9.487-21.201-21.201v-80.563H438.326z"/>
<path style="fill:#439EE8;" d="M400.164,482.848v-80.563h-21.201v80.563c0,11.713,9.487,21.201,21.201,21.201h16.961
	c0.716,0,1.423-0.038,2.12-0.107C408.529,502.878,400.164,493.845,400.164,482.848z"/>
<rect x="345.042" y="381.083" style="fill:#5CC4E0;" width="131.445" height="42.402"/>
<polygon style="fill:#439EE8;" points="345.042,381.084 345.042,423.486 378.964,423.486 382.232,423.486 381.941,381.084 "/>
<rect x="399.634" y="381.083" style="fill:#BEE7F3;" width="27.031" height="42.402"/>
<path style="fill:#FF675C;" d="M103.353,198.757l-38.161-8.48l98.658,288.935c6.54,19.134,33.593,19.134,40.133,0l98.658-288.935
	l-38.161,8.48H103.353z"/>
<path style="fill:#DB3D5A;" d="M189.291,479.212L93.813,190.277H65.192l98.658,288.935c5.026,14.701,22.152,18.093,32.787,10.204
	C193.43,487.036,190.807,483.644,189.291,479.212z"/>
<path style="fill:#E0DDDF;" d="M99.113,190.277l38.299,118.724l36.412,112.894c3.159,9.795,17.024,9.795,20.183,0l36.412-112.894
	l38.299-118.724H99.113z"/>
<polygon style="fill:#C1BCBF;" points="162.853,309.001 124.554,190.277 99.113,190.277 137.413,309.001 137.527,309.354 
	162.968,309.354 "/>
<path style="fill:#FAEC8E;" d="M230.42,309.001l-36.412,112.894c-3.159,9.795-17.024,9.795-20.183,0l-36.412-112.894H230.42z"/>
<path style="fill:#FBC96C;" d="M137.527,309.354l36.299,112.541c3.159,9.795,17.024,9.795,20.183,0l2.629-8.151l-33.67-104.391
	H137.527z"/>
<polygon style="fill:#FF675C;" points="189.609,37.631 213.598,97.598 147.631,163.553 90.665,136.575 89.944,135.855 
	188.888,36.911 "/>
<rect x="127.897" y="94.655" transform="matrix(-0.7071 -0.7071 0.7071 -0.7071 191.811 300.2407)" style="fill:#FFC2BE;" width="60.381" height="31.481"/>
<circle style="fill:#FFFFFF;" cx="195.577" cy="334.441" r="13.781"/>
<path d="M340.272,190.277c0-4.392-3.56-7.95-7.95-7.95h-95.404c-4.391,0-7.95,3.559-7.95,7.95c0,4.392,3.56,7.95,7.95,7.95h20.883
	l-71.36,221.228c-0.489,1.518-1.643,1.835-2.525,1.835c-0.882,0-2.035-0.318-2.525-1.835l-71.36-221.228h86.82
	c4.391,0,7.95-3.559,7.95-7.95c0-4.392-3.56-7.95-7.95-7.95H54.708l36.634-36.634l52.887,25.047
	c1.088,0.514,2.248,0.765,3.401,0.765c2.064,0,4.098-0.803,5.624-2.328l65.966-65.956c2.249-2.248,2.942-5.622,1.761-8.575
	L198.525,38.51l24.937-24.938c3.105-3.106,3.104-8.14-0.002-11.244c-3.106-3.104-8.14-3.104-11.243,0.002L29.891,184.655
	c-2.275,2.274-2.954,5.693-1.724,8.665s4.13,4.908,7.345,4.908h23.995l96.822,283.556c4.097,11.986,14.926,19.728,27.59,19.728
	c12.663,0,23.493-7.744,27.591-19.73l96.821-283.554h23.992C336.713,198.227,340.272,194.668,340.272,190.277z M204.269,95.682
	l-58.298,58.287l-42.691-20.218l83.011-83.012L204.269,95.682z M196.461,476.64c-2.261,6.615-7.963,8.971-12.543,8.971
	s-10.282-2.356-12.543-8.969L76.309,198.227h17.017l72.934,226.108c2.519,7.81,9.45,12.856,17.658,12.856
	c8.208,0,15.139-5.046,17.658-12.856l72.935-226.108h17.017L196.461,476.64z"/>
<path d="M476.487,373.134h-34.451V73.673c0-0.813-0.124-1.62-0.369-2.395c-4.304-13.627-7.574-27.571-11.036-42.332
	c-1.473-6.282-2.996-12.771-4.598-19.206C425.404,5.352,421.913,0,416.065,0h-15.901c-3.55,0-6.67,2.353-7.644,5.766
	c-6.421,22.471-11.833,46.29-17.069,69.324c-0.131,0.578-0.198,1.169-0.198,1.762v76.323c0,4.392,3.56,7.95,7.95,7.95
	c4.391,0,7.95-3.559,7.95-7.95v-75.43c4.677-20.575,9.504-41.758,15.038-61.845h4.985c1.371,5.577,2.691,11.207,3.975,16.677
	c3.284,14.002,6.676,28.466,10.984,42.311v298.245h-34.981V200.595c0-4.392-3.56-7.95-7.95-7.95c-4.391,0-7.95,3.559-7.95,7.95
	v172.538h-30.211c-4.391,0-7.95,3.559-7.95,7.95v42.402c0,4.392,3.56,7.95,7.95,7.95h25.97v51.412
	c0,16.073,13.077,29.151,29.151,29.151h16.961c16.074,0,29.151-13.078,29.151-29.151v-51.412h30.211c4.391,0,7.95-3.559,7.95-7.95
	v-42.402C484.438,376.692,480.878,373.134,476.487,373.134z M417.125,496.098h-16.961c-7.307,0-13.25-5.944-13.25-13.25v-51.412
	h43.462v51.412C430.376,490.154,424.432,496.098,417.125,496.098z M468.537,415.535H352.993v-26.501h115.544V415.535z"/>
</svg>